<?xml version="1.0" standalone="no"?>
<!DOCTYPE svg PUBLIC "-//W3C//DTD SVG 20010904//EN"
 "http://www.w3.org/TR/2001/REC-SVG-20010904/DTD/svg10.dtd">
<svg version="1.0" xmlns="http://www.w3.org/2000/svg"
 width="16.000000pt" height="16.000000pt" viewBox="0 0 16.000000 16.000000"
 preserveAspectRatio="xMidYMid meet">
<metadata>
Created by potrace 1.11, written by Peter Selinger 2001-2013
</metadata>
<g transform="translate(0.000000,16.000000) scale(0.001179,-0.001179)"
fill="#000000" stroke="none">
<path d="M9275 11905 c-448 -20 -846 -54 -1225 -106 -364 -50 -1214 -261
-1715 -426 -643 -211 -1065 -410 -1485 -699 -285 -196 -626 -506 -612 -556 1
-5 -3 -7 -9 -5 -20 4 -20 -18 -1 -39 16 -17 30 -19 113 -17 52 1 105 3 119 6
24 4 198 91 270 135 19 12 51 31 70 42 19 11 42 24 50 30 85 52 145 80 162 74
15 -4 18 -3 13 6 -6 9 -3 9 12 1 44 -23 86 -2 259 130 189 145 259 192 454
304 544 313 1204 570 1885 736 66 16 136 34 155 39 19 5 53 12 75 16 22 3 43
8 48 11 4 2 28 8 55 13 26 4 94 17 152 29 120 23 246 46 340 60 312 48 441 65
595 80 333 33 428 41 605 51 688 38 1549 28 2150 -25 85 -7 216 -19 290 -25
74 -6 188 -18 253 -26 235 -29 363 -45 423 -54 62 -10 121 -13 113 -6 -2 2
-58 11 -124 20 -66 9 -160 23 -210 31 -49 8 -133 19 -185 25 -52 6 -147 17
-210 25 -187 23 -377 44 -510 54 -69 6 -204 17 -300 25 -609 52 -1443 68
-2075 41z"/>
<path d="M9605 11753 c-172 -6 -531 -35 -743 -58 -1232 -139 -2391 -511 -3245
-1044 -263 -164 -868 -664 -1023 -845 -41 -47 -44 -76 -11 -76 31 0 75 33 222
165 253 226 642 537 815 651 576 377 1401 707 2260 903 591 135 1291 229 1930
261 124 6 272 15 330 20 58 6 139 11 180 12 66 1 61 2 -40 8 -113 7 -519 9
-675 3z"/>
<path d="M12908 11673 c6 -2 18 -2 25 0 6 3 1 5 -13 5 -14 0 -19 -2 -12 -5z"/>
<path d="M12985 11659 c22 -4 51 -8 65 -7 23 0 22 1 -5 8 -16 4 -46 8 -65 8
l-35 0 40 -9z"/>
<path d="M13115 11640 c17 -4 41 -8 55 -8 22 0 22 1 -5 8 -16 4 -41 8 -55 8
-22 0 -22 -1 5 -8z"/>
<path d="M13261 11616 c2 -2 18 -6 34 -10 22 -5 26 -4 15 4 -14 9 -59 15 -49
6z"/>
<path d="M11275 9674 c-51 -5 -178 -41 -415 -121 -320 -108 -569 -234 -825
-416 -131 -93 -225 -176 -423 -371 -183 -180 -178 -176 -168 -158 4 6 5 12 3
12 -9 0 -73 -94 -136 -198 -306 -507 -454 -1069 -438 -1662 3 -113 11 -243 17
-290 119 -921 658 -1727 1395 -2086 323 -157 672 -234 1055 -234 241 0 402 19
810 95 294 55 394 56 688 9 56 -10 104 -15 107 -12 2 2 50 186 105 409 55 222
108 431 117 464 9 33 19 76 23 95 4 19 31 127 60 240 43 168 80 325 80 337 0
2 -47 3 -103 3 l-104 0 -18 -41 c-26 -57 -90 -84 -115 -48 -3 5 -23 -27 -45
-69 -55 -110 -181 -329 -222 -385 -19 -27 -32 -51 -29 -54 3 -3 -4 -24 -16
-47 -131 -260 -408 -489 -672 -556 -71 -18 -101 -19 -300 -15 -226 6 -331 19
-453 56 -416 127 -792 491 -1053 1017 -122 247 -215 565 -257 884 -27 203 -24
628 6 843 72 523 209 892 460 1242 304 423 699 631 1156 609 607 -28 1001
-395 1283 -1193 l47 -133 138 0 c137 0 137 0 132 23 -2 12 -9 177 -15 367 -11
390 -39 1074 -46 1107 -3 17 -14 22 -53 28 -45 6 -53 4 -98 -29 -81 -58 -104
-55 -403 56 -343 128 -469 164 -716 203 -96 16 -451 27 -559 19z"/>
<path d="M1372 9593 c-623 -2 -952 -7 -952 -13 0 -19 -40 -50 -66 -50 -15 0
-38 12 -56 30 -16 17 -31 30 -34 30 -2 0 -4 -83 -4 -185 l0 -185 88 0 c160 0
280 -39 364 -117 80 -76 131 -193 146 -337 4 -39 7 -890 7 -1891 l0 -1820 -23
-84 c-13 -46 -35 -107 -49 -135 -15 -28 -26 -61 -24 -73 9 -78 -128 -166 -249
-162 -45 2 -62 -3 -95 -25 -52 -36 -98 -31 -138 16 l-27 32 0 -192 0 -192
1095 0 1095 0 0 190 0 190 -87 0 c-195 0 -344 63 -420 178 -48 73 -79 170 -93
287 -6 57 -10 387 -10 840 l0 745 24 0 c45 0 181 -46 249 -83 141 -79 284
-214 458 -432 384 -482 664 -940 729 -1195 25 -98 25 -143 0 -199 -11 -24 -20
-52 -20 -63 0 -36 -19 -56 -94 -97 -91 -50 -137 -54 -177 -15 l-27 26 -7 -74
c-3 -40 -5 -122 -3 -183 l3 -110 1143 -3 1142 -2 0 193 0 193 -102 11 c-57 6
-130 20 -162 32 -203 71 -421 261 -645 561 -82 110 -125 175 -396 600 -391
612 -698 1032 -925 1261 -58 59 -115 113 -127 121 l-23 15 41 43 c173 182 420
532 701 995 287 474 310 509 416 637 173 210 327 291 584 305 l107 6 3 186 c2
102 1 188 -2 191 -3 3 -368 4 -811 2 l-806 -3 -17 -30 c-23 -40 -64 -39 -111
2 l-35 31 0 -191 0 -191 68 0 c144 -1 283 -51 328 -120 13 -19 30 -63 39 -98
14 -53 15 -77 5 -155 -28 -235 -210 -609 -457 -944 -13 -18 -19 -33 -14 -33 6
0 8 -7 4 -16 -3 -8 -12 -13 -19 -10 -8 3 -11 0 -8 -9 7 -18 -65 -130 -165
-255 -82 -103 -244 -270 -331 -341 -179 -147 -400 -248 -400 -184 0 19 -2 19
-80 -5 -36 -11 -69 -20 -73 -20 -4 0 -7 402 -5 893 4 889 4 892 26 965 31 103
66 166 118 219 80 79 212 122 377 123 l87 0 0 190 0 190 -62 -2 c-35 -2 -492
-4 -1016 -5z"/>
<path d="M7092 9593 l-953 -3 -9 -24 c-17 -45 -69 -48 -112 -6 -16 17 -31 30
-34 30 -2 0 -4 -83 -4 -185 l0 -185 88 0 c234 -1 381 -79 457 -243 69 -149 66
-39 63 -2102 -3 -1747 -4 -1864 -21 -1920 -10 -33 -30 -85 -44 -115 -15 -30
-26 -64 -25 -75 3 -27 -29 -77 -70 -109 -49 -36 -111 -56 -180 -56 -44 0 -67
-5 -89 -21 -16 -11 -44 -23 -64 -26 -30 -5 -39 -1 -68 28 l-34 34 -7 -179 c-3
-99 -2 -184 2 -188 4 -4 498 -7 1098 -6 l1089 3 0 185 0 185 -115 6 c-317 16
-453 153 -489 494 -6 55 -8 784 -6 1860 3 1607 5 1777 20 1849 58 274 186 380
478 393 l117 6 -2 186 -3 186 -65 0 c-36 0 -494 -1 -1018 -2z"/>
<path d="M3035 8900 c-3 -5 -13 -8 -23 -7 -30 2 -129 -50 -206 -107 -107 -81
-309 -282 -486 -485 -142 -162 -163 -186 -174 -196 -30 -26 -75 -97 -106 -165
-18 -41 -49 -109 -68 -150 -45 -98 -61 -193 -62 -370 0 -170 11 -200 78 -221
63 -19 127 10 292 129 96 70 335 309 432 432 320 407 518 813 495 1012 -10 80
-53 132 -103 124 -11 -2 -29 0 -41 5 -13 5 -25 4 -28 -1z"/>
<path d="M3748 8308 c-75 -103 -213 -317 -396 -618 -52 -85 -91 -141 -87 -125
8 37 9 38 -102 -110 -121 -161 -134 -204 -84 -266 l19 -24 51 108 c27 59 52
107 55 107 6 0 0 -59 -15 -130 -6 -31 -9 -69 -7 -85 l3 -30 18 27 c10 15 45
89 76 165 59 140 171 368 371 748 129 248 156 310 98 233z"/>
<path d="M1962 6514 c-12 -8 -30 -30 -40 -47 -16 -30 -17 -83 -17 -687 0 -581
2 -663 17 -728 26 -112 63 -185 124 -242 61 -58 99 -76 196 -95 l68 -13 24 82
c24 78 44 149 85 294 10 37 61 204 111 372 51 168 101 337 111 377 l19 72 -52
76 c-97 141 -170 229 -292 351 -184 185 -284 238 -354 188z"/>
<path d="M707 5732 c-38 -71 -340 -834 -376 -952 l-18 -55 111 0 c130 0 164
13 238 86 95 94 118 176 125 435 5 184 4 195 -22 300 -15 60 -31 134 -34 164
l-7 55 -17 -33z"/>
<path d="M2672 5727 c-16 -19 -70 -185 -150 -462 -124 -427 -138 -485 -112
-485 16 0 28 31 85 229 30 106 85 289 121 407 58 189 88 324 72 324 -3 0 -10
-6 -16 -13z"/>
<path d="M450 4168 c0 -7 6 -24 14 -38 27 -49 266 -502 461 -870 108 -206 219
-415 245 -465 130 -245 331 -627 403 -765 l81 -155 9 45 c20 110 79 407 107
540 17 80 33 156 36 170 2 14 13 63 24 110 10 47 21 96 24 110 2 14 14 66 26
115 24 102 46 197 86 370 15 66 65 269 111 450 46 182 86 342 89 356 6 26 4
27 -48 32 -29 2 -416 5 -860 6 -645 1 -808 -1 -808 -11z"/>
<path d="M2460 4170 c-9 -6 -10 -10 -3 -10 6 0 15 5 18 10 8 12 4 12 -15 0z"/>
<path d="M2204 4156 c-15 -12 -19 -27 -20 -78 0 -44 -27 -172 -91 -433 -105
-422 -215 -913 -302 -1350 -34 -165 -70 -321 -82 -347 -14 -31 -19 -55 -15
-73 10 -38 39 -29 48 15 4 19 31 150 59 290 84 425 284 1299 384 1685 19 72
36 142 39 156 3 15 22 46 41 69 40 48 42 56 16 70 -27 14 -54 13 -77 -4z"/>
</g>
</svg>
